# xmcd
#
# Track frame offsets:
#	150
#	13332
#	25555
#	37430
#	49725
#	73005
#	84917
#	97175
#	107870
#	119500
#	132582
#	145277
#	156057
#
# Disc length: 2256
#
# Revision: 1
# Processed by: cddbd v1.5.1PL0 Copyright (c) Steve Scherf et al.
# Submitted via: FreeRIP 2.30 
# Normalized: r0:DSETVAR1,TDELIM( - )
#
DISCID=bd08ce0d
DTITLE=Various Artist - original artists - original hits - blues disc 3
DYEAR=1900
DGENRE=Blues
TTITLE0=Howlin' Wolf - Evil
TTITLE1=Muddy Waters - I can't be satisfied
TTITLE2=otis rush - homework
TTITLE3=bobby bland - i pity the fool
TTITLE4=john lee hooker - it serves you right to suffer
TTITLE5=junior parker - drivin' wheel
TTITLE6=memphis slim - mother earth
TTITLE7=big walter price - pack fair and shame
TTITLE8=gatemouth brown - okie dokie stomp
TTITLE9=willie mabon - seventh son
TTITLE10=jimmy rogers - that's alright
TTITLE11=etta james - tell mama
TTITLE12=jay mcshann - confessin' the blues
EXTD=
EXTT0=
EXTT1=
EXTT2=
EXTT3=
EXTT4=
EXTT5=
EXTT6=
EXTT7=
EXTT8=
EXTT9=
EXTT10=
EXTT11=
EXTT12=
PLAYORDER=
